<svg xmlns="http://www.w3.org/2000/svg" version="1.1" xmlns:xlink="http://www.w3.org/1999/xlink" xmlns:svgjs="http://svgjs.dev/svgjs" viewBox="0 0 12.662284890454448 12.527815468119664"><g transform="matrix(1,0,0,1,1.0495695692506617,10.269245898869002)"><g><path d=" M 0.07050000000000001 1.188 L 0.07050000000000001 0.9299999999999999 L 0.2115 0.9299999999999999 L 0.2115 0.28049999999999997 L 0.07050000000000001 0.28049999999999997 L 0.07050000000000001 0.022499999999999964 L 1.032 0.022499999999999964 L 1.032 0.49349999999999994 L 0.8205 0.49349999999999994 L 0.774 0.28049999999999997 L 0.5865 0.28049999999999997 L 0.5865 0.5009999999999999 L 0.75 0.5009999999999999 L 0.75 0.6884999999999999 L 0.5865 0.6884999999999999 L 0.5865 0.9299999999999999 L 0.726 0.9299999999999999 L 0.726 1.188 L 0.07050000000000001 1.188 M 1.1595183105468752 1.188 L 1.1595183105468752 0.9299999999999999 L 1.2765183105468751 0.9299999999999999 L 1.2765183105468751 0.28049999999999997 L 1.1595183105468752 0.28049999999999997 L 1.1595183105468752 0.022499999999999964 L 1.7685183105468751 0.022499999999999964 L 1.7685183105468751 0.28049999999999997 L 1.6515183105468751 0.28049999999999997 L 1.6515183105468751 0.9299999999999999 L 1.7685183105468751 0.9299999999999999 L 1.7685183105468751 1.188 L 1.1595183105468752 1.188 M 1.9275395507812503 1.188 L 1.9275395507812503 0.9255 L 2.0445395507812503 0.9255 L 2.0445395507812503 0.28049999999999997 L 1.9275395507812503 0.28049999999999997 L 1.9275395507812503 0.022499999999999964 L 2.5365395507812503 0.022499999999999964 L 2.5365395507812503 0.28049999999999997 L 2.4195395507812503 0.28049999999999997 L 2.4195395507812503 0.9255 L 2.6070395507812503 0.9255 L 2.6775395507812503 0.6689999999999999 L 2.86353955078125 0.6689999999999999 L 2.86353955078125 1.188 L 1.9275395507812503 1.188 M 2.9460227050781254 1.188 L 2.9460227050781254 0.9299999999999999 L 3.0870227050781254 0.9299999999999999 L 3.0870227050781254 0.28049999999999997 L 2.9460227050781254 0.28049999999999997 L 2.9460227050781254 0.022499999999999964 L 3.5745227050781256 0.022499999999999964 L 3.8010227050781253 0.5834999999999999 L 4.024522705078125 0.022499999999999964 L 4.611022705078126 0.022499999999999964 L 4.611022705078126 0.28049999999999997 L 4.470022705078126 0.28049999999999997 L 4.470022705078126 0.9299999999999999 L 4.611022705078126 0.9299999999999999 L 4.611022705078126 1.188 L 4.000522705078126 1.188 L 4.000522705078126 0.9299999999999999 L 4.095022705078126 0.9299999999999999 L 4.095022705078126 0.4949999999999999 L 3.8370227050781254 1.188 L 3.6255227050781254 1.188 L 3.3210227050781254 0.4784999999999999 L 3.3210227050781254 0.9299999999999999 L 3.4380227050781254 0.9299999999999999 L 3.4380227050781254 1.188 L 2.9460227050781254 1.188 M 4.7220527343750005 1.188 L 4.7220527343750005 0.9299999999999999 L 4.8630527343750005 0.9299999999999999 L 4.8630527343750005 0.28049999999999997 L 4.7220527343750005 0.28049999999999997 L 4.7220527343750005 0.022499999999999964 L 5.6835527343750005 0.022499999999999964 L 5.6835527343750005 0.49349999999999994 L 5.4720527343750005 0.49349999999999994 L 5.4255527343750005 0.28049999999999997 L 5.2380527343750005 0.28049999999999997 L 5.2380527343750005 0.5009999999999999 L 5.4015527343750005 0.5009999999999999 L 5.4015527343750005 0.6884999999999999 L 5.2380527343750005 0.6884999999999999 L 5.2380527343750005 0.9299999999999999 L 5.3775527343750005 0.9299999999999999 L 5.3775527343750005 1.188 L 4.7220527343750005 1.188 M 6.033821044921876 1.131 Q 5.901071044921876 1.053 5.832071044921876 0.91575 Q 5.763071044921876 0.7785 5.763071044921876 0.603 Q 5.763071044921876 0.4214999999999999 5.832071044921876 0.2849999999999999 Q 5.901071044921876 0.14849999999999985 6.033071044921876 0.07424999999999993 Q 6.165071044921876 0 6.349571044921876 0 Q 6.534071044921876 0 6.6660710449218765 0.07424999999999993 Q 6.798071044921876 0.14849999999999985 6.867071044921876 0.2849999999999999 Q 6.936071044921876 0.4214999999999999 6.936071044921876 0.603 Q 6.936071044921876 0.7785 6.867071044921876 0.91575 Q 6.798071044921876 1.053 6.6653210449218765 1.131 Q 6.532571044921876 1.2089999999999999 6.349571044921876 1.2089999999999999 Q 6.166571044921876 1.2089999999999999 6.033821044921876 1.131 M 6.471071044921876 0.8534999999999999 Q 6.513071044921876 0.7575 6.513071044921876 0.597 Q 6.513071044921876 0.44099999999999995 6.472571044921876 0.35024999999999995 Q 6.4320710449218765 0.25949999999999995 6.349571044921876 0.25949999999999995 Q 6.267071044921876 0.25949999999999995 6.226571044921876 0.35024999999999995 Q 6.186071044921876 0.44099999999999995 6.186071044921876 0.597 Q 6.186071044921876 0.7575 6.228071044921876 0.8534999999999999 Q 6.270071044921876 0.9494999999999999 6.349571044921876 0.9494999999999999 Q 6.429071044921876 0.9494999999999999 6.471071044921876 0.8534999999999999 M 7.129598876953127 0.9299999999999999 L 7.246598876953127 0.9299999999999999 L 7.246598876953127 0.28049999999999997 L 7.129598876953127 0.28049999999999997 L 7.129598876953127 0.022499999999999964 L 7.878098876953127 0.022499999999999964 Q 8.059598876953126 0.022499999999999964 8.145098876953126 0.09599999999999986 Q 8.230598876953128 0.16949999999999998 8.230598876953128 0.33899999999999997 Q 8.230598876953128 0.45299999999999996 8.166848876953127 0.5145 Q 8.103098876953126 0.576 7.986098876953127 0.597 Q 8.091098876953126 0.6134999999999999 8.137598876953128 0.67575 Q 8.184098876953126 0.738 8.184098876953126 0.831 L 8.184098876953126 0.9255 L 8.347598876953127 0.9255 L 8.347598876953127 1.188 L 8.112098876953127 1.188 Q 7.998098876953127 1.188 7.948598876953127 1.173 Q 7.8990988769531265 1.158 7.872848876953126 1.0905 Q 7.846598876953126 1.023 7.846598876953126 0.8654999999999999 Q 7.846598876953126 0.7754999999999999 7.817348876953127 0.732 Q 7.788098876953127 0.6884999999999999 7.7100988769531265 0.6884999999999999 L 7.621598876953127 0.6884999999999999 L 7.621598876953127 0.9299999999999999 L 7.738598876953127 0.9299999999999999 L 7.738598876953127 1.188 L 7.129598876953127 1.188 L 7.129598876953127 0.9299999999999999 M 7.722098876953127 0.5219999999999999 Q 7.801598876953126 0.5219999999999999 7.840598876953127 0.49349999999999994 Q 7.879598876953127 0.46499999999999997 7.879598876953127 0.3929999999999999 Q 7.879598876953127 0.3404999999999999 7.839848876953127 0.3104999999999999 Q 7.800098876953126 0.28049999999999997 7.737098876953127 0.28049999999999997 L 7.621598876953127 0.28049999999999997 L 7.621598876953127 0.5219999999999999 L 7.722098876953127 0.5219999999999999 M 8.694876708984378 1.14075 Q 8.560626708984378 1.0725 8.480376708984377 0.9352499999999999 Q 8.400126708984377 0.7979999999999999 8.400126708984377 0.5984999999999999 Q 8.400126708984377 0.4304999999999999 8.460876708984378 0.29474999999999996 Q 8.521626708984376 0.15900000000000003 8.639376708984377 0.0794999999999999 Q 8.757126708984377 0 8.923626708984377 0 Q 9.009126708984377 0 9.076626708984378 0.03974999999999995 Q 9.144126708984377 0.0794999999999999 9.174126708984378 0.14100000000000001 L 9.204126708984377 0.022499999999999964 L 9.432126708984377 0.022499999999999964 L 9.432126708984377 0.5009999999999999 L 9.198126708984377 0.5009999999999999 L 9.198126708984377 0.477 Q 9.198126708984377 0.3839999999999999 9.155376708984377 0.32474999999999987 Q 9.112626708984378 0.26549999999999996 9.028626708984378 0.26549999999999996 Q 8.971626708984378 0.26549999999999996 8.924376708984378 0.30899999999999994 Q 8.877126708984378 0.3524999999999999 8.850126708984376 0.42299999999999993 Q 8.823126708984377 0.49349999999999994 8.823126708984377 0.5684999999999999 Q 8.823126708984377 0.7154999999999999 8.896626708984376 0.79875 Q 8.970126708984377 0.8819999999999999 9.097626708984377 0.8819999999999999 Q 9.187626708984377 0.8819999999999999 9.264876708984378 0.8519999999999999 Q 9.342126708984377 0.822 9.391626708984377 0.7874999999999999 L 9.408126708984376 0.8009999999999999 L 9.408126708984376 1.113 Q 9.315126708984376 1.167 9.211626708984378 1.188 Q 9.108126708984377 1.2089999999999999 8.991126708984376 1.2089999999999999 Q 8.829126708984377 1.2089999999999999 8.694876708984378 1.14075 M 9.571634033203129 1.188 L 9.571634033203129 0.9299999999999999 L 9.712634033203127 0.9299999999999999 L 9.712634033203127 0.28049999999999997 L 9.571634033203129 0.28049999999999997 L 9.571634033203129 0.022499999999999964 L 10.555634033203127 0.022499999999999964 L 10.555634033203127 0.4859999999999999 L 10.368134033203127 0.4859999999999999 L 10.297634033203128 0.28049999999999997 L 10.087634033203127 0.28049999999999997 L 10.087634033203127 0.471 L 10.275134033203127 0.471 L 10.275134033203127 0.6629999999999999 L 10.087634033203127 0.6629999999999999 L 10.087634033203127 0.9299999999999999 L 10.297634033203128 0.9299999999999999 L 10.368134033203127 0.6915 L 10.555634033203127 0.6915 L 10.555634033203127 1.188 L 9.571634033203129 1.188" fill="#ffffff" fill-rule="nonzero"></path></g><g></g><g clip-path="url(#SvgjsClipPath1001)"><g clip-path="url(#ac0f3c030-41a1-448b-b188-9da8b927c2405a5cb772-169b-42d1-af14-d1eee026632b)"><path d=" M 1.0228190114855118 -5.690330313339814 L 1.0228190114855118 -0.6631164907647413 C 1.0228190114855118 -0.43475536124879177 1.2079829948251324 -0.24982487599661063 1.4361106262536434 -0.24982487599661063 L 9.44205955029598 -0.24982487599661063 C 9.670187181724488 -0.24982487599661063 9.85535116506411 -0.43475536124879177 9.85535116506411 -0.6631164907647413 L 9.85535116506411 -5.690330313339814 Z" fill="#e50914" transform="matrix(1,0,0,1,0,0)" fill-rule="nonzero"></path></g><g clip-path="url(#SvgjsClipPath10005a5cb772-169b-42d1-af14-d1eee026632b)"><path d=" M 9.32974697023752 -4.272996922581305 L 1.548890202486981 -4.272996922581305 L 1.548890202486981 -4.8198494433649 L 9.32974697023752 -4.8198494433649 Z" fill="#ffffff" transform="matrix(1,0,0,1,0,0)" fill-rule="nonzero"></path></g><g clip-path="url(#SvgjsClipPath10005a5cb772-169b-42d1-af14-d1eee026632b)"><path d=" M 9.32974697023752 -0.8987160609913207 L 1.548890202486981 -0.8987160609913207 L 1.548890202486981 -3.8811871318576188 L 9.32974697023752 -3.8811871318576188 Z M 1.9273906022266092 -2.94649428783681 L 8.951246570497892 -2.94649428783681 M 5.439201837318531 -2.6943163534020176 L 5.439201837318531 -1.096021944877803" fill="none" transform="matrix(1,0,0,1,0,0)" fill-rule="nonzero" stroke-dasharray="none" stroke-miterlimit="4" stroke-linejoin="miter" stroke-linecap="butt" stroke-width="0.12935794044155083" stroke="#ffffff"></path></g><g clip-path="url(#SvgjsClipPath10005a5cb772-169b-42d1-af14-d1eee026632b)"><path d=" M 9.277639947325008 -9.219676329618341 L 0.7075596440285448 -7.082935331458357 L 1.0230155601594748 -5.817842693710482 L 9.59309586345594 -7.954583691870467 Z" fill="#e50914" transform="matrix(1,0,0,1,0,0)" fill-rule="nonzero"></path></g><g clip-path="url(#bc0f3c030-41a1-448b-b188-9da8b927c2405a5cb772-169b-42d1-af14-d1eee026632b)"><path d=" M -2.7572815260745362 -5.281008166058156 L 6.886889979444189 0.5139473680183944 L 7.148874833551445 0.07777294068118046 L -2.49529667196728 -5.71694909530793 Z" fill="#ffffff" transform="matrix(1,0,0,1,0,0)" fill-rule="nonzero"></path></g><g clip-path="url(#SvgjsClipPath10005a5cb772-169b-42d1-af14-d1eee026632b)"><path d=" M 0.7075965934420214 -7.082988364260302 L 0.7251089499999931 -7.012938938028416 L 2.218095721088939 -6.115839286085386 L 2.916021504445971 -6.289795361227905 L 1.335472950567166 -7.239665580932289 Z" fill="#ffffff" transform="matrix(1,0,0,1,0,0)" fill-rule="nonzero"></path></g><g clip-path="url(#SvgjsClipPath10005a5cb772-169b-42d1-af14-d1eee026632b)"><path d=" M 5.135607019151227 -8.18697008162913 L 6.71615557303003 -7.237333360012187 L 7.413847858299623 -7.411289435154705 L 5.833299304420819 -8.360926156771649 Z" fill="#ffffff" transform="matrix(1,0,0,1,0,0)" fill-rule="nonzero"></path></g><g clip-path="url(#cc0f3c030-41a1-448b-b188-9da8b927c2405a5cb772-169b-42d1-af14-d1eee026632b)"><path d=" M 2.3075254885783147 -13.710289122628524 L 11.95169699409704 -7.915333588551975 L 12.213681848204295 -8.35150801588919 L 2.5695103426855708 -14.1462300518783 Z" fill="#ffffff" transform="matrix(1,0,0,1,0,0)" fill-rule="nonzero"></path></g><g clip-path="url(#cc0f3c030-41a1-448b-b188-9da8b927c2405a5cb772-169b-42d1-af14-d1eee026632b)"><path d=" M -1.913185939980301 -6.685966158182363 L 7.730985565538424 -0.891010624105812 L 7.99297041964568 -1.3271850514430268 L -1.6512010858730446 -7.121907087432138 Z" fill="#ffffff" transform="matrix(1,0,0,1,0,0)" fill-rule="nonzero"></path></g><g clip-path="url(#SvgjsClipPath10005a5cb772-169b-42d1-af14-d1eee026632b)"><path d=" M 2.886664567620374 -7.626047898771841 L 4.467213121499178 -6.676411177154897 L 5.165138904856209 -6.850367252297415 L 3.584590350977405 -7.800003973914359 Z" fill="#ffffff" transform="matrix(1,0,0,1,0,0)" fill-rule="nonzero"></path></g><g clip-path="url(#SvgjsClipPath10005a5cb772-169b-42d1-af14-d1eee026632b)"><path d=" M 7.384549470682079 -8.747717140483031 L 8.965098024560884 -7.798080418866087 L 9.592974381686028 -7.954524137450634 L 9.575695523215497 -8.024573563682521 L 8.08224175595167 -8.92167321562555 Z" fill="#ffffff" transform="matrix(1,0,0,1,0,0)" fill-rule="nonzero"></path></g></g></g><defs><clipPath id="SvgjsClipPath1001"><path d=" M 0.7075965934420214 -9.219676329618341 h 9.147952565069081 v 8.969676329618341 h -9.147952565069081 Z"></path></clipPath><clipPath id="ac0f3c030-41a1-448b-b188-9da8b927c2405a5cb772-169b-42d1-af14-d1eee026632b"><path d=" M 0.7075965934420214 -0.24982487599661063 L 9.85535116506411 -0.24982487599661063 L 9.85535116506411 -9.219653904989707 L 0.7075965934420214 -9.219653904989707 Z"></path></clipPath><clipPath id="SvgjsClipPath10005a5cb772-169b-42d1-af14-d1eee026632b"><path d=" M 0.7075965934420214 -9.219676329618341 L 9.855549158511103 -9.219676329618341 L 9.855549158511103 -0.25 L 0.7075965934420214 -0.25 Z"></path></clipPath><clipPath id="bc0f3c030-41a1-448b-b188-9da8b927c2405a5cb772-169b-42d1-af14-d1eee026632b"><path d=" M 9.277676896738486 -9.219653904989707 L 0.7075965934420214 -7.082912906829721 L 1.0230525095729512 -5.817820269081847 L 9.593132812869413 -7.954561267241831 Z"></path></clipPath><clipPath id="cc0f3c030-41a1-448b-b188-9da8b927c2405a5cb772-169b-42d1-af14-d1eee026632b"><path d=" M 9.277676896738486 -9.219653904989707 L 0.7075965934420214 -7.082912906829721 L 1.0230525095729512 -5.817820269081847 L 9.593132812869413 -7.954561267241831 Z"></path></clipPath></defs></svg>